<svg xmlns="http://www.w3.org/2000/svg" viewBox="0 0 1616.82 246.71">
    <defs>
        <linearGradient id="grad" x1="0%" y1="0%" x2="0%" y2="100%">
            <stop offset="0%" style="stop-color: #f9f9f9; stop-opacity:1" />
            <stop offset="100%" style="stop-color: #b2b2b2; stop-opacity:1" />
        </linearGradient>
    </defs>

    <g id="CircleAndBar" fill="#a798d3">
        <path d="M40.76,110.12a83.32,83.32,0,0,1,.51-9L29.89,85.8A95,95,0,0,0,97.84,202L89.48,184.3A80.84,80.84,0,0,1,40.76,110.12Z" />
        <path d="M121.59,15.26A94.57,94.57,0,0,0,55,42.53l20.5,1.18a80.71,80.71,0,0,1,93.09.71l19.23-2.16A94.55,94.55,0,0,0,121.59,15.26Z" />
        <path d="M213.15,85.28,201.72,99.73A80.63,80.63,0,0,1,152.09,185l-6.72,17A95,95,0,0,0,213.15,85.28Z" />

        <rect id="bar" class="cls-1" x="923.94" y="56.82" width="668.71" height="24.45" />
    </g>

    <g fill="url(#grad)">
        <path id="V" d="M122.82,230.47C87.18,121.76,17.29,49.41,17.29,49.41s38.12,10.24,67.06,9.18c14.83,18.35,37.24,58.23,37.24,58.23s26.29-43.41,39-57.53c28.23-.35,65.29-9.88,65.29-9.88S148.59,128.12,122.82,230.47Z" />
        <rect id="I" x="285.88" y="56.82" width="37.76" height="145.76" />
        <polygon id="T" points="385.76 56.82 385.76 85.06 433.41 85.06 433.41 202.59 471.53 202.59 471.53 85.06 519.18 85.06 519.18 56.82 385.76 56.82" />
        <path id="A" d="M664.24,56.82h-47L564.71,202.59h38.11l8.47-26.47h59.3l8.47,26.47h38.47Zm-3.53,91.77H622.24l18.88-55.06Z" />
        <polygon id="L" points="817.76 175.06 817.76 56.82 779.29 56.82 779.29 202.59 883.41 202.59 883.41 175.06 817.76 175.06" />
    </g>

    <g id="WATCH" fill="url(#grad)">
        <polygon id="W" points="1054.72 102.71 1036.48 177.44 1018.36 120.88 999.35 120.87 981.23 177.44 962.99 102.71 936.87 102.71 962.9 202.59 995.07 202.59 1008.85 164.89 1022.64 202.59 1054.8 202.59 1080.84 102.71 1054.72 102.71" />
        <path id="A" d="M1164.85,102.71h-32.17l-36,99.88h26.12l5.8-18.14h40.63l5.81,18.14h26.36Zm-2.42,62.88h-26.36L1149,127.86Z" />
        <polygon id="T" points="1214.59 102.71 1214.59 122.05 1250.01 122.05 1250.01 202.59 1278.35 202.59 1278.35 122.05 1313.77 122.05 1313.77 102.71 1214.59 102.71" />
        <path id="C" d="M1433.11,133l-25.72,4.64q-1.29-7.69-5.89-11.6t-11.93-3.9q-9.75,0-15.55,6.73t-5.8,22.51q0,17.55,5.9,24.79t15.82,7.24q7.43,0,12.16-4.22t6.69-14.53l25.62,4.36q-4,17.64-15.32,26.64t-30.35,9q-21.63,0-34.49-13.65t-12.86-37.78q0-24.42,12.91-38t34.9-13.6q18,0,28.64,7.75T1433.11,133Z" />
        <polygon id="H" points="1546.71 102.71 1546.71 149.59 1500.93 149.59 1500.93 122.05 1500.94 102.71 1472.6 102.71 1472.6 202.59 1500.93 202.59 1500.93 168.93 1546.71 168.93 1546.71 202.59 1575.05 202.59 1575.05 102.71 1546.71 102.71" />
    </g>
</svg>