<svg id="Layer_1" data-name="Layer 1" xmlns="http://www.w3.org/2000/svg" viewBox="0 0 1595.65 246.71"><defs><style>.cls-1{fill:#fff;}</style></defs><g id="WATCH"><polygon id="H" class="cls-1" points="1511.71 102.71 1511.71 149.59 1465.93 149.59 1465.93 122.05 1465.94 102.71 1435.6 102.71 1435.6 202.59 1465.93 202.59 1465.93 168.93 1511.71 168.93 1511.71 202.59 1540.05 202.59 1540.05 102.71 1511.71 102.71"/><path id="C" class="cls-1" d="M1410.11,133l-25.72,4.64q-1.29-7.69-5.89-11.6t-11.93-3.9q-9.75,0-15.55,6.73t-5.8,22.51q0,17.55,5.9,24.79t15.82,7.24q7.43,0,12.16-4.22t6.69-14.53l25.62,4.36q-4,17.64-15.32,26.64t-30.35,9q-21.63,0-34.49-13.65t-12.86-37.78q0-24.42,12.91-38t34.9-13.6q18,0,28.64,7.75T1410.11,133Z"/><polygon id="T" class="cls-1" points="1204.59 102.71 1204.59 122.05 1240.01 122.05 1240.01 202.59 1268.35 202.59 1268.35 122.05 1303.77 122.05 1303.77 102.71 1204.59 102.71"/><path id="A" class="cls-1" d="M1166.85,102.71h-32.17l-36,99.88h26.12l5.8-18.14h40.63l5.81,18.14h26.36Zm-2.42,62.88h-26.36L1151,127.86Z"/><polygon id="W" class="cls-1" points="1068.72 102.71 1050.48 177.44 1032.36 120.88 1013.35 120.87 995.23 177.44 976.99 102.71 950.87 102.71 976.9 202.59 1009.07 202.59 1022.85 164.89 1036.64 202.59 1068.8 202.59 1094.84 102.71 1068.72 102.71"/><rect id="bar" class="cls-1" x="934.94" y="56.82" width="626.71" height="24.45"/></g><g id="VITAL"><polygon id="L" class="cls-1" points="817.76 175.06 817.76 56.82 779.29 56.82 779.29 202.59 883.41 202.59 883.41 175.06 817.76 175.06"/><path id="A-2" data-name="A" class="cls-1" d="M664.24,56.82h-47L564.71,202.59h38.11l8.47-26.47h59.3l8.47,26.47h38.47Zm-3.53,91.77H622.24l18.88-55.06Z"/><polygon id="T-2" data-name="T" class="cls-1" points="385.76 56.82 385.76 85.06 433.41 85.06 433.41 202.59 471.53 202.59 471.53 85.06 519.18 85.06 519.18 56.82 385.76 56.82"/><rect id="I" class="cls-1" x="285.88" y="56.82" width="37.76" height="145.76"/><path id="V" class="cls-1" d="M122.82,230.47C87.18,121.76,17.29,49.41,17.29,49.41s38.12,10.24,67.06,9.18c14.83,18.35,37.24,58.23,37.24,58.23s26.29-43.41,39-57.53c28.23-.35,65.29-9.88,65.29-9.88S148.59,128.12,122.82,230.47Z"/></g><g id="Circle"><path class="cls-1" d="M40.76,110.12a83.32,83.32,0,0,1,.51-9L29.89,85.8A95,95,0,0,0,97.84,202L89.48,184.3A80.84,80.84,0,0,1,40.76,110.12Z"/><path class="cls-1" d="M121.59,15.26A94.57,94.57,0,0,0,55,42.53l20.5,1.18a80.71,80.71,0,0,1,93.09.71l19.23-2.16A94.55,94.55,0,0,0,121.59,15.26Z"/><path class="cls-1" d="M213.15,85.28,201.72,99.73A80.63,80.63,0,0,1,152.09,185l-6.72,17A95,95,0,0,0,213.15,85.28Z"/></g></svg>