<svg xmlns="http://www.w3.org/2000/svg" viewBox="0 0 900 246.71">
    <defs>
        <linearGradient id="grad" x1="0%" y1="0%" x2="0%" y2="100%">
            <stop offset="0%" style="stop-color: #f9f9f9; stop-opacity:1" />
            <stop offset="100%" style="stop-color: #b2b2b2; stop-opacity:1" />
        </linearGradient>
    </defs>

    <g id="Circle" fill="#a798d3">
        <path d="M40.76,110.12a83.32,83.32,0,0,1,.51-9L29.89,85.8A95,95,0,0,0,97.84,202L89.48,184.3A80.84,80.84,0,0,1,40.76,110.12Z" />
        <path d="M121.59,15.26A94.57,94.57,0,0,0,55,42.53l20.5,1.18a80.71,80.71,0,0,1,93.09.71l19.23-2.16A94.55,94.55,0,0,0,121.59,15.26Z" />
        <path d="M213.15,85.28,201.72,99.73A80.63,80.63,0,0,1,152.09,185l-6.72,17A95,95,0,0,0,213.15,85.28Z" />
    </g>

    <g fill="url(#grad)">
        <path id="V" d="M122.82,230.47C87.18,121.76,17.29,49.41,17.29,49.41s38.12,10.24,67.06,9.18c14.83,18.35,37.24,58.23,37.24,58.23s26.29-43.41,39-57.53c28.23-.35,65.29-9.88,65.29-9.88S148.59,128.12,122.82,230.47Z" />
        <rect id="I" x="285.88" y="56.82" width="37.76" height="145.76" />
        <polygon id="T" points="385.76 56.82 385.76 85.06 433.41 85.06 433.41 202.59 471.53 202.59 471.53 85.06 519.18 85.06 519.18 56.82 385.76 56.82" />
        <path id="A" d="M664.24,56.82h-47L564.71,202.59h38.11l8.47-26.47h59.3l8.47,26.47h38.47Zm-3.53,91.77H622.24l18.88-55.06Z" />
        <polygon id="L" points="817.76 175.06 817.76 56.82 779.29 56.82 779.29 202.59 883.41 202.59 883.41 175.06 817.76 175.06" />
    </g>

</svg>